# xmcd
#
# Track frame offsets: 
#        150
#        19897
#        44177
#        62467
#        85553
#        100485
#        113864
#        239533
#        257080
#        345960
#
# Disc length: 4798 seconds
#
# Revision: 1
# Processed by: cddbd v1.5.2PL0 Copyright (c) Steve Scherf et al.
# Submitted via: ExactAudioCopy v1.0b3
#
DISCID=8412bc0a
DTITLE=Angus MacLise - The Cloud Doctrine [CD2]
DYEAR=2002
DGENRE=Avantgarde
TTITLE0=Chumlum
TTITLE1=Trance 1
TTITLE2=Trance 2
TTITLE3=Two Speed Trance
TTITLE4=Four Speed Trance
TTITLE5=Shortwave Radio
TTITLE6=Electronic Mix for 'Expanded Cinema'
TTITLE7=Organ and Drum
TTITLE8=Universal Solar Calendar
TTITLE9=Tambura Drone and Sine Wave Generator
EXTD=
EXTT0=
EXTT1=
EXTT2=
EXTT3=
EXTT4=
EXTT5=
EXTT6=
EXTT7=
EXTT8=
EXTT9=
PLAYORDER=
